<?xml version="1.0" standalone="no"?>
<!DOCTYPE svg PUBLIC "-//W3C//DTD SVG 20010904//EN"
 "http://www.w3.org/TR/2001/REC-SVG-20010904/DTD/svg10.dtd">
<svg version="1.0" xmlns="http://www.w3.org/2000/svg"
 width="700.000000pt" height="700.000000pt" viewBox="0 0 700.000000 700.000000"
 preserveAspectRatio="xMidYMid meet">
<metadata>
Created by potrace 1.14, written by Peter Selinger 2001-2017
</metadata>
<g transform="translate(0.000000,700.000000) scale(0.100000,-0.100000)"
fill="#000000" stroke="none">
<path d="M1995 6993 c-337 -40 -580 -114 -843 -254 -394 -210 -724 -549 -917
-944 -72 -148 -85 -177 -113 -260 -46 -134 -85 -292 -97 -394 -4 -30 -10 -63
-13 -75 -4 -12 -7 -700 -8 -1531 -2 -1610 -2 -1594 47 -1815 66 -297 189 -573
363 -815 28 -38 53 -72 56 -75 3 -3 27 -31 54 -63 175 -208 425 -405 672 -529
96 -48 231 -106 259 -112 6 -2 48 -15 94 -29 87 -29 234 -62 311 -72 25 -3 77
-10 115 -14 92 -12 2969 -12 3060 0 222 28 313 49 486 107 452 154 849 460
1117 862 122 183 255 486 297 676 31 143 36 172 54 309 11 78 9 3067 -1 3101
-3 12 -9 45 -13 75 -4 30 -18 101 -31 159 -145 640 -574 1184 -1164 1475 -196
97 -460 179 -646 200 -32 4 -81 11 -109 15 -47 8 -2966 11 -3030 3z"/>
</g>
</svg>
