<svg width="24" height="24" viewBox="0 0 24 24" fill="none"
  xmlns="http://www.w3.org/2000/svg">
  <path d="M12.675 15.25L15.275 12.65C15.4417 12.4667 15.525 12.246 15.525 11.988C15.525 11.7293 15.4417 11.5167 15.275 11.35L12.65 8.725C12.4667 8.54167 12.25 8.454 12 8.462C11.75 8.47067 11.5333 8.55833 11.35 8.725C11.1667 8.90833 11.075 9.129 11.075 9.387C11.075 9.64567 11.1667 9.86667 11.35 10.05L12.35 11.05H8.975C8.725 11.05 8.51267 11.1417 8.338 11.325C8.16267 11.5083 8.075 11.7333 8.075 12C8.075 12.25 8.16667 12.4667 8.35 12.65C8.53333 12.8333 8.75 12.925 9 12.925H12.35L11.325 13.95C11.1583 14.1333 11.075 14.35 11.075 14.6C11.075 14.85 11.1667 15.0667 11.35 15.25C11.5333 15.4333 11.754 15.525 12.012 15.525C12.2707 15.525 12.4917 15.4333 12.675 15.25ZM12 21.75C10.65 21.75 9.38333 21.496 8.2 20.988C7.01667 20.4793 5.98333 19.7833 5.1 18.9C4.21667 18.0167 3.521 16.9833 3.013 15.8C2.50433 14.6167 2.25 13.35 2.25 12C2.25 10.6333 2.50433 9.35833 3.013 8.175C3.521 6.99167 4.21667 5.96233 5.1 5.087C5.98333 4.21233 7.01667 3.52067 8.2 3.012C9.38333 2.504 10.65 2.25 12 2.25C13.3667 2.25 14.6417 2.504 15.825 3.012C17.0083 3.52067 18.0377 4.21233 18.913 5.087C19.7877 5.96233 20.4793 6.99167 20.988 8.175C21.496 9.35833 21.75 10.6333 21.75 12C21.75 13.35 21.496 14.6167 20.988 15.8C20.4793 16.9833 19.7877 18.0167 18.913 18.9C18.0377 19.7833 17.0083 20.4793 15.825 20.988C14.6417 21.496 13.3667 21.75 12 21.75Z" fill="#064438"/>
</svg>
