<svg width="18" height="18" viewBox="0 0 18 18" fill="none"
  xmlns="http://www.w3.org/2000/svg">
  <path d="M9.50625 11.4375L11.4562 9.4875C11.5813 9.35 11.6437 9.1845 11.6437 8.991C11.6437 8.797 11.5813 8.6375 11.4562 8.5125L9.4875 6.54375C9.35 6.40625 9.1875 6.3405 9 6.3465C8.8125 6.353 8.65 6.41875 8.5125 6.54375C8.375 6.68125 8.30625 6.84675 8.30625 7.04025C8.30625 7.23425 8.375 7.4 8.5125 7.5375L9.2625 8.2875H6.73125C6.54375 8.2875 6.3845 8.35625 6.2535 8.49375C6.122 8.63125 6.05625 8.8 6.05625 9C6.05625 9.1875 6.125 9.35 6.2625 9.4875C6.4 9.625 6.5625 9.69375 6.75 9.69375H9.2625L8.49375 10.4625C8.36875 10.6 8.30625 10.7625 8.30625 10.95C8.30625 11.1375 8.375 11.3 8.5125 11.4375C8.65 11.575 8.8155 11.6437 9.009 11.6437C9.203 11.6437 9.36875 11.575 9.50625 11.4375ZM9 16.3125C7.9875 16.3125 7.0375 16.122 6.15 15.741C5.2625 15.3595 4.4875 14.8375 3.825 14.175C3.1625 13.5125 2.64075 12.7375 2.25975 11.85C1.87825 10.9625 1.6875 10.0125 1.6875 9C1.6875 7.975 1.87825 7.01875 2.25975 6.13125C2.64075 5.24375 3.1625 4.47175 3.825 3.81525C4.4875 3.15925 5.2625 2.6405 6.15 2.259C7.0375 1.878 7.9875 1.6875 9 1.6875C10.025 1.6875 10.9812 1.878 11.8687 2.259C12.7562 2.6405 13.5282 3.15925 14.1847 3.81525C14.8407 4.47175 15.3595 5.24375 15.741 6.13125C16.122 7.01875 16.3125 7.975 16.3125 9C16.3125 10.0125 16.122 10.9625 15.741 11.85C15.3595 12.7375 14.8407 13.5125 14.1847 14.175C13.5282 14.8375 12.7562 15.3595 11.8687 15.741C10.9812 16.122 10.025 16.3125 9 16.3125Z" fill="currentColor"/>
</svg>
