<svg width="14" height="16" viewBox="0 0 14 16" fill="none" xmlns="http://www.w3.org/2000/svg">
<path d="M8.87519 12.4254C8.3627 12.4254 7.93144 12.2504 7.58144 11.9004C7.23144 11.5504 7.05645 11.1191 7.05645 10.6066C7.05645 10.0941 7.23144 9.66289 7.58144 9.31289C7.93144 8.96289 8.3627 8.78789 8.87519 8.78789C9.3877 8.78789 9.81894 8.96289 10.1689 9.31289C10.5189 9.66289 10.6939 10.0941 10.6939 10.6066C10.6939 11.1191 10.5189 11.5504 10.1689 11.9004C9.81894 12.2504 9.3877 12.4254 8.87519 12.4254ZM1.8252 15.3129C1.4377 15.3129 1.10645 15.1754 0.831445 14.9004C0.556445 14.6254 0.418945 14.2941 0.418945 13.9066V3.55664C0.418945 3.16914 0.556445 2.83789 0.831445 2.56289C1.10645 2.28789 1.4377 2.15039 1.8252 2.15039H2.66895V1.34414C2.66895 1.15664 2.7377 0.994141 2.8752 0.856641C3.0127 0.719141 3.18145 0.650391 3.38145 0.650391C3.56895 0.650391 3.73145 0.719141 3.86895 0.856641C4.00645 0.994141 4.0752 1.15664 4.0752 1.34414V2.15039H9.92519V1.34414C9.92519 1.15664 9.99394 0.994141 10.1314 0.856641C10.2689 0.719141 10.4377 0.650391 10.6377 0.650391C10.8252 0.650391 10.9877 0.719141 11.1252 0.856641C11.2627 0.994141 11.3314 1.15664 11.3314 1.34414V2.15039H12.1752C12.5627 2.15039 12.8939 2.28789 13.1689 2.56289C13.4439 2.83789 13.5814 3.16914 13.5814 3.55664V13.9066C13.5814 14.2941 13.4439 14.6254 13.1689 14.9004C12.8939 15.1754 12.5627 15.3129 12.1752 15.3129H1.8252ZM1.8252 13.9066H12.1752V6.53789H1.8252V13.9066Z" fill="#808B8C"/>
</svg>
