<svg width="64" height="64" viewBox="0 0 64 64" fill="none" xmlns="http://www.w3.org/2000/svg">
<path d="M26 3.4641C29.7128 1.32051 34.2872 1.32051 38 3.4641L53.7128 12.5359C57.4256 14.6795 59.7128 18.641 59.7128 22.9282V41.0718C59.7128 45.359 57.4256 49.3205 53.7128 51.4641L38 60.5359C34.2872 62.6795 29.7128 62.6795 26 60.5359L10.2872 51.4641C6.57438 49.3205 4.28719 45.359 4.28719 41.0718L4.28719 22.9282C4.28719 18.641 6.57437 14.6795 10.2872 12.5359L26 3.4641Z" fill="#FFB1F7"/>
<g clip-path="url(#clip0_10271_68694)">
<path d="M17.3467 46.1339H47.3334" stroke="#7E1A82" stroke-width="1.5" stroke-linecap="round" stroke-linejoin="round"/>
<path d="M24.3467 38.454H20.3467C20.0873 38.4504 19.8369 38.549 19.6497 38.7287C19.4625 38.9084 19.3537 39.1546 19.3467 39.4139V46.0806H25.3467V39.4139C25.345 39.285 25.3176 39.1576 25.2663 39.0393C25.2149 38.921 25.1406 38.8141 25.0475 38.7248C24.9545 38.6355 24.8446 38.5654 24.7243 38.5189C24.604 38.4724 24.4756 38.4504 24.3467 38.454Z" fill="url(#paint0_linear_10271_68694)" fill-opacity="0.4" stroke="#7E1A82" stroke-width="1.5" stroke-linecap="round" stroke-linejoin="round"/>
<path d="M44.3472 28.8942H40.3472C40.0877 28.8906 39.8373 28.9893 39.6502 29.169C39.463 29.3486 39.3542 29.5948 39.3472 29.8542V46.1742H45.3472V29.8542C45.3455 29.7252 45.3181 29.598 45.2668 29.4797C45.2154 29.3614 45.141 29.2544 45.048 29.1651C44.9549 29.0757 44.8451 29.0058 44.7248 28.9593C44.6045 28.9128 44.4761 28.8907 44.3472 28.8942Z" fill="#7E1A82" stroke="#7E1A82" stroke-width="1.5" stroke-linecap="round" stroke-linejoin="round"/>
<path d="M34.3472 34.613H30.3472C30.0877 34.6094 29.8373 34.708 29.6502 34.8877C29.463 35.0674 29.3542 35.3136 29.3472 35.5729V46.133H35.3472V35.5596C35.3437 35.4318 35.3151 35.3059 35.263 35.1892C35.2108 35.0724 35.1362 34.967 35.0433 34.8791C34.9505 34.7912 34.8412 34.7224 34.7217 34.6768C34.6023 34.6311 34.475 34.6094 34.3472 34.613Z" fill="url(#paint1_linear_10271_68694)" fill-opacity="0.4" stroke="#7E1A82" stroke-width="1.5" stroke-linecap="round" stroke-linejoin="round"/>
<path d="M32.0005 24.4993L42.0005 19.4993" stroke="#7E1A82" stroke-width="1.5" stroke-linecap="round" stroke-linejoin="round"/>
<path d="M19.5005 29.9993L32.0005 24.4993" stroke="#7E1A82" stroke-width="1.5" stroke-linecap="round" stroke-linejoin="round"/>
<path d="M32.0005 26.5077C32.2579 26.513 32.5138 26.4676 32.7537 26.3739C32.9935 26.2803 33.2125 26.1403 33.3982 25.962C33.584 25.7837 33.7328 25.5705 33.8361 25.3347C33.9394 25.0989 33.9953 24.845 34.0005 24.5876C33.9953 24.3302 33.9394 24.0764 33.8361 23.8406C33.7328 23.6048 33.584 23.3916 33.3982 23.2133C33.2125 23.035 32.9935 22.895 32.7537 22.8013C32.5138 22.7077 32.2579 22.6624 32.0005 22.6677C31.7431 22.6624 31.4872 22.7077 31.2473 22.8013C31.0075 22.895 30.7885 23.035 30.6027 23.2133C30.417 23.3916 30.2682 23.6048 30.1649 23.8406C30.0615 24.0764 30.0057 24.3302 30.0005 24.5876C30.0057 24.845 30.0615 25.0989 30.1649 25.3347C30.2682 25.5705 30.417 25.7837 30.6027 25.962C30.7885 26.1403 31.0075 26.2803 31.2473 26.3739C31.4872 26.4676 31.7431 26.513 32.0005 26.5077Z" fill="#7E1A82" stroke="#7E1A82" stroke-width="1.5" stroke-linecap="round" stroke-linejoin="round"/>
<path d="M42.0005 21.1737C42.2579 21.179 42.5138 21.1336 42.7537 21.0399C42.9935 20.9463 43.2125 20.8065 43.3982 20.6282C43.584 20.4499 43.7328 20.2367 43.8361 20.0009C43.9394 19.7651 43.9953 19.5112 44.0005 19.2538C43.9953 18.9964 43.9394 18.7426 43.8361 18.5067C43.7328 18.2709 43.584 18.0578 43.3982 17.8795C43.2125 17.7012 42.9935 17.5611 42.7537 17.4675C42.5138 17.3739 42.2579 17.3284 42.0005 17.3337C41.7431 17.3284 41.4872 17.3739 41.2473 17.4675C41.0075 17.5611 40.7885 17.7012 40.6027 17.8795C40.417 18.0578 40.2682 18.2709 40.1649 18.5067C40.0615 18.7426 40.0057 18.9964 40.0005 19.2538C40.0057 19.5112 40.0615 19.7651 40.1649 20.0009C40.2682 20.2367 40.417 20.4499 40.6027 20.6282C40.7885 20.8065 41.0075 20.9463 41.2473 21.0399C41.4872 21.1336 41.7431 21.179 42.0005 21.1737Z" fill="#7E1A82" stroke="#7E1A82" stroke-width="1.5" stroke-linecap="round" stroke-linejoin="round"/>
<path d="M19.3335 31.7338C19.5909 31.7391 19.8468 31.6936 20.0867 31.6C20.3265 31.5064 20.5455 31.3664 20.7313 31.1881C20.917 31.0098 21.0658 30.7968 21.1691 30.5609C21.2724 30.3251 21.3283 30.0711 21.3335 29.8137C21.3283 29.5563 21.2724 29.3025 21.1691 29.0666C21.0658 28.8308 20.917 28.6178 20.7313 28.4395C20.5455 28.2612 20.3265 28.1212 20.0867 28.0276C19.8468 27.934 19.5909 27.8885 19.3335 27.8938C19.0761 27.8885 18.8202 27.934 18.5803 28.0276C18.3405 28.1212 18.1215 28.2612 17.9357 28.4395C17.75 28.6178 17.6012 28.8308 17.4979 29.0666C17.3946 29.3025 17.3387 29.5563 17.3335 29.8137C17.3387 30.0711 17.3946 30.3251 17.4979 30.5609C17.6012 30.7968 17.75 31.0098 17.9357 31.1881C18.1215 31.3664 18.3405 31.5064 18.5803 31.6C18.8202 31.6936 19.0761 31.7391 19.3335 31.7338Z" fill="#7E1A82" stroke="#7E1A82" stroke-width="1.5" stroke-linecap="round" stroke-linejoin="round"/>
</g>
<defs>
<linearGradient id="paint0_linear_10271_68694" x1="19.3467" y1="42.2671" x2="25.3467" y2="42.2671" gradientUnits="userSpaceOnUse">
<stop stop-color="#FF42E0"/>
<stop offset="1" stop-color="#7811FF"/>
</linearGradient>
<linearGradient id="paint1_linear_10271_68694" x1="29.3472" y1="40.3728" x2="35.3472" y2="40.3728" gradientUnits="userSpaceOnUse">
<stop stop-color="#FF42E0"/>
<stop offset="1" stop-color="#7811FF"/>
</linearGradient>
<clipPath id="clip0_10271_68694">
<rect width="32" height="32" fill="white" transform="translate(16 16)"/>
</clipPath>
</defs>
</svg>
