<?xml version="1.0" encoding="utf-8"?>
<!-- Uploaded to: SVG Repo, www.svgrepo.com, Generator: SVG Repo Mixer Tools -->
<svg fill="#000000" version="1.1" id="Layer_1" xmlns="http://www.w3.org/2000/svg" xmlns:xlink="http://www.w3.org/1999/xlink" 
	 width="800px" height="800px" viewBox="0 0 256 164" enable-background="new 0 0 256 164" xml:space="preserve">
<path d="M143.749,46.281l35.438-34.453l-35.438-8.859V46.281z M127.954,35.33l-7.215-33.1L99.816,19.826L127.954,35.33z
	 M100.466,73.301c-3.158-1.819-6.512-3.225-9.969-4.237c3.471-2.306,21.769-13.001,21.769-13.001l9.846,15.988
	c0,0-12.523,7.346-13.057,7.658C106.481,77.276,103.616,75.114,100.466,73.301z M224.874,84.41l-36.484-9.821
	c-5.473-1.473-11.08-1.734-16.517-0.847c-5.154-4.263-11.177-7.766-17.125-11.22l-10.998-6.397l-9.863,15.917l11.431,6.717
	c2.554,1.483,4.879,2.852,6.997,4.166c-5.867,5.085-10.089,11.784-12.149,19.432c-1.338,4.972-1.634,9.978-1.061,14.803h7.558
	c4.364,0,8.271-1.937,10.939-4.987c0.032-1.634,0.252-3.288,0.696-4.936c1.228-4.563,3.936-8.474,7.708-11.227
	c0.806,1.962,1.23,4.11,1.23,6.577c0,6.512-3.27,12.83-8.534,16.647c-0.004-0.012-0.007-0.025-0.011-0.037
	c-3.375,2.423-7.506,3.864-11.987,3.864l-30.972,0.098c1.85-6.585,2.015-13.732,0.112-20.803
	c-2.689-9.99-9.407-18.697-18.369-23.857c-7.401-4.262-16.295-6.032-24.829-4.911c-4.619,0.607-41.511,10.82-41.511,10.82
	C21,87.137,12.528,93.662,7.277,102.78c-5.251,9.119-6.641,19.722-3.912,29.855c2.728,10.134,9.252,18.607,18.37,23.856
	c6.067,3.494,12.788,5.277,19.593,5.277c3.424,0,6.87-0.452,10.262-1.365l36.484-9.821c6.293-1.694,11.812-4.839,16.312-8.967
	c1.623,0.205,3.273,0.323,4.951,0.323c0,0,37.324,0,37.328,0c10.074-0.249,19.967-4.006,27.266-11.022
	c2.97-2.859,5.494-6.179,7.455-9.843c0.015-0.028,0.029-0.058,0.044-0.086c3.858-7.241,5.302-15.664,4.226-23.787
	c-0.189-1.425-0.443-2.798-0.776-4.108l35.11,9.451c5.297,1.425,9.726,4.836,12.471,9.604c2.745,4.768,3.472,10.31,2.045,15.608
	c-2.948,10.954-14.259,17.467-25.211,14.517l-30.126-8.11c-5.674,5.84-12.896,10.166-21.004,12.293
	c2.989,1.77,6.251,3.182,9.766,4.128l36.484,9.821c3.392,0.913,6.837,1.365,10.262,1.365c6.804,0,13.526-1.785,19.593-5.277
	c9.118-5.25,15.643-13.722,18.371-23.856C258.283,111.684,245.825,90.05,224.874,84.41z M97.304,119.239
	c-5.056-3.664-8.39-9.556-8.525-16.232c-1.04-1.188-2.257-2.228-3.668-3.04c-2.225-1.282-4.734-2.063-7.25-1.959
	c-3.326,0.137-7.757,1.572-7.757,1.572c-0.069,0.978-0.116,1.975-0.116,3.008c0,11.863,5.285,22.509,13.615,29.729
	c-0.139,0.04-0.269,0.095-0.409,0.133l-36.485,9.821c-5.296,1.426-10.839,0.699-15.607-2.046c-4.767-2.745-8.178-7.174-9.604-12.471
	c-2.949-10.954,3.563-22.265,14.517-25.213c5.677-1.528,25.619-6.803,29.892-8.043c4.404-1.278,8.924-2.601,13.56-2.396
	c3.019,0.134,6.032,1.163,8.64,2.664c4.678,2.694,8.201,7.257,9.604,12.47C98.814,111.341,98.591,115.494,97.304,119.239z"/>
</svg>