<svg width="18" height="18" viewBox="0 0 18 18" fill="none"
  xmlns="http://www.w3.org/2000/svg">
  <path d="M9.00029 16.4439C8.81279 16.4439 8.65029 16.3752 8.51279 16.2377C8.37529 16.1002 8.30654 15.9377 8.30654 15.7502V12.7502C8.30654 12.0502 8.20029 11.5282 7.98779 11.1842C7.77529 10.8407 7.50029 10.5127 7.16279 10.2002L8.15654 9.1877C8.30654 9.32519 8.45029 9.47194 8.58779 9.62794C8.72529 9.78444 8.86279 9.95644 9.00029 10.1439C9.18779 9.88144 9.37529 9.65945 9.56279 9.47795C9.75029 9.29695 9.93779 9.11895 10.1253 8.94395C10.6003 8.50645 11.0315 7.9907 11.419 7.3967C11.8065 6.8032 12.0128 5.75645 12.0378 4.25645L11.3253 4.96895C11.2003 5.09395 11.044 5.15645 10.8565 5.15645C10.669 5.15645 10.5003 5.0877 10.3503 4.9502C10.2128 4.8127 10.144 4.6502 10.144 4.4627C10.144 4.2752 10.2128 4.1127 10.3503 3.9752L12.2628 2.04395C12.3378 1.98145 12.416 1.93445 12.4975 1.90295C12.5785 1.87195 12.6628 1.85645 12.7503 1.85645C12.8503 1.85645 12.941 1.87195 13.0225 1.90295C13.1035 1.93445 13.1753 1.98145 13.2378 2.04395L15.169 3.9752C15.3065 4.1127 15.3753 4.2752 15.3753 4.4627C15.3753 4.6502 15.3065 4.8127 15.169 4.9502C15.0315 5.0877 14.8658 5.15945 14.6718 5.16545C14.4783 5.17195 14.3128 5.10645 14.1753 4.96895L13.4628 4.2377C13.4378 6.0627 13.166 7.35945 12.6475 8.12794C12.1285 8.89694 11.6065 9.51895 11.0815 9.99395C10.6815 10.3564 10.3535 10.7127 10.0975 11.0627C9.84104 11.4127 9.71279 11.9752 9.71279 12.7502V15.7502C9.71279 15.9377 9.64404 16.1002 9.50654 16.2377C9.36904 16.3752 9.20029 16.4439 9.00029 16.4439ZM4.68779 6.0752C4.65029 5.8252 4.62229 5.54395 4.60379 5.23145C4.58479 4.91895 4.56904 4.5877 4.55654 4.2377L3.82529 4.96895C3.68779 5.10645 3.52529 5.1752 3.33779 5.1752C3.15029 5.1752 2.98779 5.1002 2.85029 4.9502C2.71279 4.8127 2.64404 4.6502 2.64404 4.4627C2.64404 4.2752 2.71279 4.1127 2.85029 3.9752L4.76279 2.04395C4.83779 1.98145 4.91579 1.93445 4.99679 1.90295C5.07829 1.87195 5.16279 1.85645 5.25029 1.85645C5.35029 1.85645 5.44104 1.87195 5.52254 1.90295C5.60354 1.93445 5.67529 1.98145 5.73779 2.04395L7.66904 3.9752C7.80654 4.1127 7.87529 4.2752 7.87529 4.4627C7.87529 4.6502 7.80029 4.8127 7.65029 4.9502C7.51279 5.0877 7.35029 5.15945 7.16279 5.16545C6.97529 5.17195 6.81279 5.10645 6.67529 4.96895L5.96279 4.25645C5.96279 4.55645 5.97229 4.8282 5.99129 5.0717C6.00979 5.3157 6.03154 5.5377 6.05654 5.7377L4.68779 6.0752ZM6.26279 9.35645C6.02529 9.10645 5.79729 8.8127 5.57879 8.4752C5.35979 8.1377 5.16904 7.73145 5.00654 7.25645L6.35654 6.91895C6.46904 7.23145 6.60354 7.5032 6.76004 7.7342C6.91604 7.9657 7.08779 8.17519 7.27529 8.36269L6.26279 9.35645Z" fill="#F2F4F5"/>
</svg>
