<svg width="18" height="18" viewBox="0 0 18 18" fill="none"
  xmlns="http://www.w3.org/2000/svg">
  <path d="M3.8252 8.2877C3.4377 8.2877 3.10645 8.1502 2.83145 7.8752C2.55645 7.6002 2.41895 7.26895 2.41895 6.88145V3.8252C2.41895 3.4377 2.55645 3.10645 2.83145 2.83145C3.10645 2.55645 3.4377 2.41895 3.8252 2.41895H6.9002C7.2752 2.41895 7.60345 2.55645 7.88494 2.83145C8.16595 3.10645 8.30645 3.4377 8.30645 3.8252V6.88145C8.30645 7.26895 8.16595 7.6002 7.88494 7.8752C7.60345 8.1502 7.2752 8.2877 6.9002 8.2877H3.8252ZM3.8252 15.5814C3.4377 15.5814 3.10645 15.4439 2.83145 15.1689C2.55645 14.8939 2.41895 14.5627 2.41895 14.1752V11.1002C2.41895 10.7252 2.55645 10.3969 2.83145 10.1154C3.10645 9.83445 3.4377 9.69395 3.8252 9.69395H6.9002C7.2752 9.69395 7.60345 9.83445 7.88494 10.1154C8.16595 10.3969 8.30645 10.7252 8.30645 11.1002V14.1752C8.30645 14.5627 8.16595 14.8939 7.88494 15.1689C7.60345 15.4439 7.2752 15.5814 6.9002 15.5814H3.8252ZM11.1189 8.2877C10.7314 8.2877 10.4002 8.1502 10.1252 7.8752C9.85019 7.6002 9.7127 7.26895 9.7127 6.88145V3.8252C9.7127 3.4377 9.85019 3.10645 10.1252 2.83145C10.4002 2.55645 10.7314 2.41895 11.1189 2.41895H14.1752C14.5627 2.41895 14.8939 2.55645 15.1689 2.83145C15.4439 3.10645 15.5814 3.4377 15.5814 3.8252V6.88145C15.5814 7.26895 15.4439 7.6002 15.1689 7.8752C14.8939 8.1502 14.5627 8.2877 14.1752 8.2877H11.1189ZM11.1189 15.5814C10.7314 15.5814 10.4002 15.4439 10.1252 15.1689C9.85019 14.8939 9.7127 14.5627 9.7127 14.1752V11.1002C9.7127 10.7252 9.85019 10.3969 10.1252 10.1154C10.4002 9.83445 10.7314 9.69395 11.1189 9.69395H14.1752C14.5627 9.69395 14.8939 9.83445 15.1689 10.1154C15.4439 10.3969 15.5814 10.7252 15.5814 11.1002V14.1752C15.5814 14.5627 15.4439 14.8939 15.1689 15.1689C14.8939 15.4439 14.5627 15.5814 14.1752 15.5814H11.1189Z" fill="#340B3A"/>
</svg>
