<svg width="24" height="24" viewBox="0 0 24 24" fill="none" xmlns="http://www.w3.org/2000/svg">
<path d="M12.0008 13.3254L7.15078 18.1754C6.96745 18.3587 6.74678 18.4504 6.48878 18.4504C6.23011 18.4504 6.00911 18.3587 5.82578 18.1754C5.64245 17.9921 5.55078 17.7711 5.55078 17.5124C5.55078 17.2544 5.64245 17.0337 5.82578 16.8504L10.7008 11.9754L5.82578 7.10039C5.64245 6.93372 5.55078 6.72106 5.55078 6.46239C5.55078 6.20439 5.64245 5.98372 5.82578 5.80039C6.00911 5.61706 6.23011 5.52539 6.48878 5.52539C6.74678 5.52539 6.96745 5.61706 7.15078 5.80039L12.0008 10.6754L16.8508 5.82539C17.0341 5.64206 17.2551 5.55039 17.5138 5.55039C17.7718 5.55039 17.9924 5.64206 18.1758 5.82539C18.3591 6.00872 18.4508 6.22939 18.4508 6.48739C18.4508 6.74606 18.3591 6.96706 18.1758 7.15039L13.3258 12.0004L18.2008 16.8754C18.3674 17.0587 18.4548 17.2754 18.4628 17.5254C18.4714 17.7754 18.3841 17.9921 18.2008 18.1754C18.0174 18.3587 17.7968 18.4504 17.5388 18.4504C17.2801 18.4504 17.0591 18.3587 16.8758 18.1754L12.0008 13.3254Z" fill="#808B8C"/>
</svg>
