<svg width="12" height="16" viewBox="0 0 12 16" fill="none" xmlns="http://www.w3.org/2000/svg">
<path fill-rule="evenodd" clip-rule="evenodd" d="M5.7 15.1625C5.8 15.2 5.9 15.2188 6 15.2188C6.1 15.2188 6.2 15.2 6.3 15.1625C6.4 15.125 6.4875 15.075 6.5625 15.0125C8.3875 13.4 9.75 11.9032 10.65 10.5223C11.55 9.14075 12 7.85 12 6.65C12 4.775 11.3967 3.28125 10.1903 2.16875C8.98425 1.05625 7.5875 0.5 6 0.5C4.4125 0.5 3.01575 1.05625 1.80975 2.16875C0.60325 3.28125 0 4.775 0 6.65C0 7.85 0.45 9.14075 1.35 10.5223C2.25 11.9032 3.6125 13.4 5.4375 15.0125C5.5125 15.075 5.6 15.125 5.7 15.1625ZM6 8C5.175 8 4.5 7.325 4.5 6.5C4.5 5.675 5.175 5 6 5C6.825 5 7.5 5.675 7.5 6.5C7.5 7.325 6.825 8 6 8Z" fill="#808B8C"/>
</svg>
