<svg width="32" height="32" viewBox="0 0 32 32" fill="none"
  xmlns="http://www.w3.org/2000/svg">
  <path d="M12.8009 1.84767C14.7811 0.704422 17.2208 0.704422 19.2009 1.84767L26.6573 6.15263C28.6375 7.29588 29.8573 9.40869 29.8573 11.6952L29.8573 20.3051C29.8573 22.5916 28.6375 24.7044 26.6573 25.8477L19.2009 30.1526C17.2208 31.2959 14.7811 31.2959 12.8009 30.1526L5.34453 25.8477C3.36436 24.7044 2.14453 22.5916 2.14453 20.3051L2.14453 11.6952C2.14453 9.40869 3.36436 7.29588 5.34453 6.15263L12.8009 1.84767Z" fill="currentColor"/>
  <path d="M10.4902 9.6001H10.4915C11.8515 9.60345 14.3251 9.93498 15.6123 12.117C15.6647 12.206 15.6925 12.3134 15.6925 12.4278V22.0574C14.1241 20.3298 11.8508 20.0321 10.4938 20.0287C10.172 20.0279 9.91016 19.7527 9.91016 19.4153V10.2137C9.91016 10.0491 9.9711 9.89439 10.0817 9.77822C10.1912 9.66332 10.3361 9.6001 10.4902 9.6001Z" fill="#0E1212"/>
  <path d="M22.3799 10.2137V19.4153C22.3799 19.7527 22.1181 20.0279 21.7963 20.0287C20.4394 20.0321 18.166 20.3298 16.5977 22.0574V12.4278C16.5977 12.3135 16.6254 12.206 16.6777 12.1171C17.965 9.93504 20.4386 9.6035 21.7985 9.6001H21.8C21.9539 9.6001 22.0989 9.66332 22.2083 9.77822C22.319 9.89439 22.3799 10.0491 22.3799 10.2137Z" fill="#0E1212"/>
  <path d="M23.7074 11.7218H23.2848V19.415C23.2848 20.2765 22.6179 20.979 21.7982 20.9811C20.6473 20.984 18.7495 21.2209 17.4055 22.5599C19.73 21.9608 22.1804 22.3503 23.5769 22.6853C23.7513 22.7271 23.9315 22.6839 24.0712 22.5667C24.2104 22.4498 24.2903 22.275 24.2903 22.0874V12.3353C24.2903 11.997 24.0288 11.7218 23.7074 11.7218Z" fill="#0E1212"/>
  <path d="M9.00554 11.7218V19.415C9.00554 20.2765 9.67243 20.979 10.4921 20.9811C11.643 20.984 13.5408 21.2208 14.8848 22.5598C12.5604 21.9607 10.1099 22.3501 8.71335 22.6851C8.5387 22.727 8.35868 22.6837 8.21908 22.5665C8.07986 22.4496 8 22.2749 8 22.0872V12.3353C8 11.997 8.26153 11.7218 8.58285 11.7218H9.00554Z" fill="#0E1212"/>
</svg>
