<svg width="121" height="32" viewBox="0 0 121 32" fill="none" xmlns="http://www.w3.org/2000/svg">
<path d="M45.176 15.24C44.3493 15.24 43.656 15.04 43.096 14.64C42.536 14.2347 42.112 13.688 41.824 13C41.536 12.312 41.392 11.536 41.392 10.672C41.392 9.808 41.5333 9.032 41.816 8.344C42.104 7.656 42.5253 7.11467 43.08 6.72C43.64 6.32 44.328 6.12 45.144 6.12C45.9547 6.12 46.6533 6.32 47.24 6.72C47.832 7.11467 48.288 7.656 48.608 8.344C48.928 9.02667 49.088 9.80267 49.088 10.672C49.088 11.536 48.928 12.3147 48.608 13.008C48.2933 13.696 47.8427 14.24 47.256 14.64C46.6747 15.04 45.9813 15.24 45.176 15.24ZM41.112 15V3.48H42.792V8.784H42.6V15H41.112ZM44.944 13.728C45.4773 13.728 45.9173 13.592 46.264 13.32C46.616 13.048 46.8773 12.6827 47.048 12.224C47.224 11.76 47.312 11.2427 47.312 10.672C47.312 10.1067 47.224 9.59467 47.048 9.136C46.8773 8.67733 46.6133 8.312 46.256 8.04C45.8987 7.768 45.4427 7.632 44.888 7.632C44.3653 7.632 43.9333 7.76 43.592 8.016C43.256 8.272 43.0053 8.62933 42.84 9.088C42.68 9.54667 42.6 10.0747 42.6 10.672C42.6 11.2693 42.68 11.7973 42.84 12.256C43 12.7147 43.2533 13.0747 43.6 13.336C43.9467 13.5973 44.3947 13.728 44.944 13.728ZM50.6944 15V3.24H52.3664V15H50.6944ZM58.2007 15.24C57.3367 15.24 56.5874 15.0453 55.9527 14.656C55.3181 14.2667 54.8274 13.7307 54.4807 13.048C54.1394 12.36 53.9687 11.568 53.9687 10.672C53.9687 9.77067 54.1447 8.97867 54.4967 8.296C54.8487 7.608 55.3421 7.07467 55.9767 6.696C56.6114 6.312 57.3527 6.12 58.2007 6.12C59.0647 6.12 59.8141 6.31467 60.4488 6.704C61.0834 7.09333 61.5741 7.62933 61.9207 8.312C62.2674 8.99467 62.4408 9.78133 62.4408 10.672C62.4408 11.5733 62.2648 12.368 61.9128 13.056C61.5661 13.7387 61.0754 14.2747 60.4408 14.664C59.8061 15.048 59.0594 15.24 58.2007 15.24ZM58.2007 13.664C59.0274 13.664 59.6434 13.3867 60.0487 12.832C60.4594 12.272 60.6648 11.552 60.6648 10.672C60.6648 9.77067 60.4568 9.05067 60.0408 8.512C59.6301 7.968 59.0167 7.696 58.2007 7.696C57.6407 7.696 57.1794 7.824 56.8167 8.08C56.4541 8.33067 56.1847 8.68 56.0087 9.128C55.8327 9.57067 55.7447 10.0853 55.7447 10.672C55.7447 11.5787 55.9527 12.304 56.3687 12.848C56.7847 13.392 57.3954 13.664 58.2007 13.664ZM67.5748 15.24C66.6894 15.24 65.9374 15.0427 65.3188 14.648C64.7001 14.2533 64.2254 13.712 63.8948 13.024C63.5694 12.336 63.4041 11.5547 63.3988 10.68C63.4041 9.78933 63.5748 9.00267 63.9108 8.32C64.2468 7.632 64.7268 7.09333 65.3508 6.704C65.9748 6.31467 66.7241 6.12 67.5988 6.12C68.5428 6.12 69.3481 6.35467 70.0148 6.824C70.6868 7.29333 71.1294 7.936 71.3428 8.752L69.6788 9.232C69.5134 8.74667 69.2414 8.37067 68.8628 8.104C68.4894 7.832 68.0601 7.696 67.5748 7.696C67.0254 7.696 66.5748 7.82667 66.2228 8.088C65.8708 8.344 65.6094 8.696 65.4388 9.144C65.2681 9.592 65.1801 10.104 65.1748 10.68C65.1801 11.5707 65.3828 12.2907 65.7828 12.84C66.1881 13.3893 66.7854 13.664 67.5748 13.664C68.1134 13.664 68.5481 13.5413 68.8788 13.296C69.2148 13.0453 69.4708 12.688 69.6468 12.224L71.3428 12.624C71.0601 13.4667 70.5934 14.1147 69.9428 14.568C69.2921 15.016 68.5028 15.24 67.5748 15.24ZM72.6445 15L72.6525 3.48H74.3485V10.52L77.7405 6.36H79.8685L76.2845 10.68L80.2365 15H77.9645L74.3485 10.84V15H72.6445ZM84.2629 15.24C83.3775 15.24 82.6255 15.0427 82.0069 14.648C81.3882 14.2533 80.9135 13.712 80.5829 13.024C80.2575 12.336 80.0922 11.5547 80.0869 10.68C80.0922 9.78933 80.2629 9.00267 80.5989 8.32C80.9349 7.632 81.4149 7.09333 82.0389 6.704C82.6629 6.31467 83.4122 6.12 84.2869 6.12C85.2309 6.12 86.0362 6.35467 86.7029 6.824C87.3749 7.29333 87.8175 7.936 88.0309 8.752L86.3669 9.232C86.2015 8.74667 85.9295 8.37067 85.5509 8.104C85.1775 7.832 84.7482 7.696 84.2629 7.696C83.7135 7.696 83.2629 7.82667 82.9109 8.088C82.5589 8.344 82.2975 8.696 82.1269 9.144C81.9562 9.592 81.8682 10.104 81.8629 10.68C81.8682 11.5707 82.0709 12.2907 82.4709 12.84C82.8762 13.3893 83.4735 13.664 84.2629 13.664C84.8015 13.664 85.2362 13.5413 85.5669 13.296C85.9029 13.0453 86.1589 12.688 86.3349 12.224L88.0309 12.624C87.7482 13.4667 87.2815 14.1147 86.6309 14.568C85.9802 15.016 85.1909 15.24 84.2629 15.24ZM95.4046 15V10.752C95.4046 10.416 95.3753 10.072 95.3166 9.72C95.2633 9.36267 95.1566 9.032 94.9966 8.728C94.842 8.424 94.6206 8.17867 94.3326 7.992C94.05 7.80533 93.6793 7.712 93.2206 7.712C92.922 7.712 92.6393 7.76267 92.3726 7.864C92.106 7.96 91.8713 8.11733 91.6686 8.336C91.4713 8.55467 91.314 8.84267 91.1966 9.2C91.0846 9.55733 91.0286 9.992 91.0286 10.504L89.9886 10.112C89.9886 9.328 90.1353 8.63733 90.4286 8.04C90.722 7.43733 91.1433 6.968 91.6926 6.632C92.242 6.296 92.906 6.128 93.6846 6.128C94.282 6.128 94.7833 6.224 95.1886 6.416C95.594 6.608 95.922 6.86133 96.1726 7.176C96.4286 7.48533 96.6233 7.824 96.7566 8.192C96.89 8.56 96.9806 8.92 97.0286 9.272C97.0766 9.624 97.1006 9.93333 97.1006 10.2V15H95.4046ZM89.3326 15V3.48H90.8286V9.696H91.0286V15H89.3326ZM101.304 15.24C100.664 15.24 100.128 15.1227 99.6964 14.888C99.2644 14.648 98.9364 14.3333 98.7124 13.944C98.4937 13.5493 98.3844 13.1173 98.3844 12.648C98.3844 12.2107 98.4617 11.8267 98.6164 11.496C98.771 11.1653 99.0004 10.8853 99.3044 10.656C99.6084 10.4213 99.9817 10.232 100.424 10.088C100.808 9.976 101.243 9.87733 101.728 9.792C102.214 9.70667 102.723 9.62667 103.256 9.552C103.795 9.47733 104.328 9.40267 104.856 9.328L104.248 9.664C104.259 8.98667 104.115 8.48533 103.816 8.16C103.523 7.82933 103.016 7.664 102.296 7.664C101.843 7.664 101.427 7.77067 101.048 7.984C100.67 8.192 100.406 8.53867 100.256 9.024L98.6964 8.544C98.9097 7.80267 99.315 7.21333 99.9124 6.776C100.515 6.33867 101.315 6.12 102.312 6.12C103.086 6.12 103.758 6.25333 104.328 6.52C104.904 6.78133 105.326 7.19733 105.592 7.768C105.731 8.05067 105.816 8.34933 105.848 8.664C105.88 8.97867 105.896 9.31733 105.896 9.68V15H104.416V13.024L104.704 13.28C104.347 13.9413 103.891 14.4347 103.336 14.76C102.787 15.08 102.11 15.24 101.304 15.24ZM101.6 13.872C102.075 13.872 102.483 13.7893 102.824 13.624C103.166 13.4533 103.44 13.2373 103.648 12.976C103.856 12.7147 103.992 12.4427 104.056 12.16C104.147 11.904 104.198 11.616 104.208 11.296C104.224 10.976 104.232 10.72 104.232 10.528L104.776 10.728C104.248 10.808 103.768 10.88 103.336 10.944C102.904 11.008 102.512 11.072 102.16 11.136C101.814 11.1947 101.504 11.2667 101.232 11.352C101.003 11.432 100.798 11.528 100.616 11.64C100.44 11.752 100.299 11.888 100.192 12.048C100.091 12.208 100.04 12.4027 100.04 12.632C100.04 12.856 100.096 13.064 100.208 13.256C100.32 13.4427 100.491 13.592 100.72 13.704C100.95 13.816 101.243 13.872 101.6 13.872ZM107.814 4.944V3.32H109.486V4.944H107.814ZM107.814 15V6.36H109.486V15H107.814ZM117.632 15V10.752C117.632 10.416 117.603 10.072 117.544 9.72C117.491 9.36267 117.384 9.032 117.224 8.728C117.069 8.424 116.848 8.17867 116.56 7.992C116.277 7.80533 115.907 7.712 115.448 7.712C115.149 7.712 114.867 7.76267 114.6 7.864C114.333 7.96 114.099 8.11733 113.896 8.336C113.699 8.55467 113.541 8.84267 113.424 9.2C113.312 9.55733 113.256 9.992 113.256 10.504L112.216 10.112C112.216 9.328 112.363 8.63733 112.656 8.04C112.949 7.43733 113.371 6.968 113.92 6.632C114.469 6.296 115.133 6.128 115.912 6.128C116.509 6.128 117.011 6.224 117.416 6.416C117.821 6.608 118.149 6.86133 118.4 7.176C118.656 7.48533 118.851 7.824 118.984 8.192C119.117 8.56 119.208 8.92 119.256 9.272C119.304 9.624 119.328 9.93333 119.328 10.2V15H117.632ZM111.56 15V6.36H113.056V8.856H113.256V15H111.56ZM44.952 29.24C44.0933 29.24 43.3387 29.0533 42.688 28.68C42.0427 28.3013 41.5387 27.776 41.176 27.104C40.8187 26.4267 40.64 25.6427 40.64 24.752C40.64 23.808 40.816 22.9893 41.168 22.296C41.5253 21.6027 42.0213 21.0667 42.656 20.688C43.2907 20.3093 44.0293 20.12 44.872 20.12C45.752 20.12 46.5013 20.3253 47.12 20.736C47.7387 21.1413 48.2 21.72 48.504 22.472C48.8133 23.224 48.936 24.1173 48.872 25.152H47.2V24.544C47.1893 23.5413 46.9973 22.8 46.624 22.32C46.256 21.84 45.6933 21.6 44.936 21.6C44.0987 21.6 43.4693 21.864 43.048 22.392C42.6267 22.92 42.416 23.6827 42.416 24.68C42.416 25.6293 42.6267 26.3653 43.048 26.888C43.4693 27.4053 44.0773 27.664 44.872 27.664C45.3947 27.664 45.8453 27.5467 46.224 27.312C46.608 27.072 46.9067 26.7307 47.12 26.288L48.76 26.808C48.424 27.5813 47.9147 28.1813 47.232 28.608C46.5493 29.0293 45.7893 29.24 44.952 29.24ZM41.872 25.152V23.848H48.04V25.152H41.872ZM53.7789 29.24C52.9735 29.24 52.2775 29.04 51.6909 28.64C51.1095 28.24 50.6589 27.696 50.3389 27.008C50.0242 26.3147 49.8669 25.536 49.8669 24.672C49.8669 23.8027 50.0269 23.0267 50.3469 22.344C50.6669 21.656 51.1202 21.1147 51.7069 20.72C52.2989 20.32 53.0002 20.12 53.8109 20.12C54.6269 20.12 55.3122 20.32 55.8669 20.72C56.4269 21.1147 56.8482 21.656 57.1309 22.344C57.4189 23.032 57.5629 23.808 57.5629 24.672C57.5629 25.536 57.4189 26.312 57.1309 27C56.8429 27.688 56.4189 28.2347 55.8589 28.64C55.2989 29.04 54.6055 29.24 53.7789 29.24ZM54.0109 27.728C54.5602 27.728 55.0082 27.5973 55.3549 27.336C55.7015 27.0747 55.9549 26.7147 56.1149 26.256C56.2749 25.7973 56.3549 25.2693 56.3549 24.672C56.3549 24.0747 56.2722 23.5467 56.1069 23.088C55.9469 22.6293 55.6962 22.272 55.3549 22.016C55.0189 21.76 54.5895 21.632 54.0669 21.632C53.5122 21.632 53.0562 21.768 52.6989 22.04C52.3415 22.312 52.0749 22.6773 51.8989 23.136C51.7282 23.5947 51.6429 24.1067 51.6429 24.672C51.6429 25.2427 51.7282 25.76 51.8989 26.224C52.0749 26.6827 52.3362 27.048 52.6829 27.32C53.0349 27.592 53.4775 27.728 54.0109 27.728ZM56.3549 29V22.784H56.1629V17.48H57.8429V29H56.3549ZM63.0173 29.232C62.4199 29.232 61.9186 29.136 61.5133 28.944C61.1079 28.752 60.7773 28.5013 60.5213 28.192C60.2706 27.8773 60.0786 27.536 59.9453 27.168C59.8119 26.8 59.7213 26.44 59.6733 26.088C59.6253 25.736 59.6013 25.4267 59.6013 25.16V20.36H61.2973V24.608C61.2973 24.944 61.3239 25.2907 61.3773 25.648C61.4359 26 61.5426 26.328 61.6973 26.632C61.8573 26.936 62.0786 27.1813 62.3613 27.368C62.6493 27.5547 63.0226 27.648 63.4813 27.648C63.7799 27.648 64.0626 27.6 64.3293 27.504C64.5959 27.4027 64.8279 27.2427 65.0253 27.024C65.2279 26.8053 65.3853 26.5173 65.4973 26.16C65.6146 25.8027 65.6733 25.368 65.6733 24.856L66.7133 25.248C66.7133 26.032 66.5666 26.7253 66.2733 27.328C65.9799 27.9253 65.5586 28.392 65.0093 28.728C64.4599 29.064 63.7959 29.232 63.0173 29.232ZM65.8733 29V26.504H65.6733V20.36H67.3613V29H65.8733ZM72.981 29.24C72.0957 29.24 71.3437 29.0427 70.725 28.648C70.1063 28.2533 69.6317 27.712 69.301 27.024C68.9757 26.336 68.8103 25.5547 68.805 24.68C68.8103 23.7893 68.981 23.0027 69.317 22.32C69.653 21.632 70.133 21.0933 70.757 20.704C71.381 20.3147 72.1303 20.12 73.005 20.12C73.949 20.12 74.7543 20.3547 75.421 20.824C76.093 21.2933 76.5357 21.936 76.749 22.752L75.085 23.232C74.9197 22.7467 74.6477 22.3707 74.269 22.104C73.8957 21.832 73.4663 21.696 72.981 21.696C72.4317 21.696 71.981 21.8267 71.629 22.088C71.277 22.344 71.0157 22.696 70.845 23.144C70.6743 23.592 70.5863 24.104 70.581 24.68C70.5863 25.5707 70.789 26.2907 71.189 26.84C71.5943 27.3893 72.1917 27.664 72.981 27.664C73.5197 27.664 73.9543 27.5413 74.285 27.296C74.621 27.0453 74.877 26.688 75.053 26.224L76.749 26.624C76.4663 27.4667 75.9997 28.1147 75.349 28.568C74.6983 29.016 73.909 29.24 72.981 29.24ZM80.3894 29.24C79.7494 29.24 79.2134 29.1227 78.7814 28.888C78.3494 28.648 78.0214 28.3333 77.7974 27.944C77.5787 27.5493 77.4694 27.1173 77.4694 26.648C77.4694 26.2107 77.5467 25.8267 77.7014 25.496C77.856 25.1653 78.0854 24.8853 78.3894 24.656C78.6934 24.4213 79.0667 24.232 79.5094 24.088C79.8934 23.976 80.328 23.8773 80.8134 23.792C81.2987 23.7067 81.808 23.6267 82.3414 23.552C82.88 23.4773 83.4134 23.4027 83.9414 23.328L83.3334 23.664C83.344 22.9867 83.2 22.4853 82.9014 22.16C82.608 21.8293 82.1014 21.664 81.3814 21.664C80.928 21.664 80.512 21.7707 80.1334 21.984C79.7547 22.192 79.4907 22.5387 79.3414 23.024L77.7814 22.544C77.9947 21.8027 78.4 21.2133 78.9974 20.776C79.6 20.3387 80.4 20.12 81.3974 20.12C82.1707 20.12 82.8427 20.2533 83.4134 20.52C83.9894 20.7813 84.4107 21.1973 84.6774 21.768C84.816 22.0507 84.9014 22.3493 84.9334 22.664C84.9654 22.9787 84.9814 23.3173 84.9814 23.68V29H83.5014V27.024L83.7894 27.28C83.432 27.9413 82.976 28.4347 82.4214 28.76C81.872 29.08 81.1947 29.24 80.3894 29.24ZM80.6854 27.872C81.16 27.872 81.568 27.7893 81.9094 27.624C82.2507 27.4533 82.5254 27.2373 82.7334 26.976C82.9414 26.7147 83.0774 26.4427 83.1414 26.16C83.232 25.904 83.2827 25.616 83.2934 25.296C83.3094 24.976 83.3174 24.72 83.3174 24.528L83.8614 24.728C83.3334 24.808 82.8534 24.88 82.4214 24.944C81.9894 25.008 81.5974 25.072 81.2454 25.136C80.8987 25.1947 80.5894 25.2667 80.3174 25.352C80.088 25.432 79.8827 25.528 79.7014 25.64C79.5254 25.752 79.384 25.888 79.2774 26.048C79.176 26.208 79.1254 26.4027 79.1254 26.632C79.1254 26.856 79.1814 27.064 79.2934 27.256C79.4054 27.4427 79.576 27.592 79.8054 27.704C80.0347 27.816 80.328 27.872 80.6854 27.872ZM91.6828 29C91.1388 29.1067 90.6054 29.152 90.0828 29.136C89.5601 29.12 89.0934 29.0187 88.6828 28.832C88.2721 28.6453 87.9628 28.352 87.7548 27.952C87.5681 27.5947 87.4668 27.232 87.4508 26.864C87.4401 26.4907 87.4348 26.0693 87.4348 25.6V17.96H89.1148V25.52C89.1148 25.8667 89.1174 26.168 89.1228 26.424C89.1334 26.68 89.1894 26.896 89.2908 27.072C89.4828 27.4027 89.7868 27.592 90.2028 27.64C90.6241 27.6827 91.1174 27.664 91.6828 27.584V29ZM85.7788 21.704V20.36H91.6828V21.704H85.7788ZM93.3444 18.944V17.32H95.0164V18.944H93.3444ZM93.3444 29V20.36H95.0164V29H93.3444ZM100.851 29.24C99.9867 29.24 99.2374 29.0453 98.6027 28.656C97.9681 28.2667 97.4774 27.7307 97.1307 27.048C96.7894 26.36 96.6187 25.568 96.6187 24.672C96.6187 23.7707 96.7947 22.9787 97.1467 22.296C97.4987 21.608 97.9921 21.0747 98.6267 20.696C99.2614 20.312 100.003 20.12 100.851 20.12C101.715 20.12 102.464 20.3147 103.099 20.704C103.733 21.0933 104.224 21.6293 104.571 22.312C104.917 22.9947 105.091 23.7813 105.091 24.672C105.091 25.5733 104.915 26.368 104.563 27.056C104.216 27.7387 103.725 28.2747 103.091 28.664C102.456 29.048 101.709 29.24 100.851 29.24ZM100.851 27.664C101.677 27.664 102.293 27.3867 102.699 26.832C103.109 26.272 103.315 25.552 103.315 24.672C103.315 23.7707 103.107 23.0507 102.691 22.512C102.28 21.968 101.667 21.696 100.851 21.696C100.291 21.696 99.8294 21.824 99.4667 22.08C99.1041 22.3307 98.8347 22.68 98.6587 23.128C98.4827 23.5707 98.3947 24.0853 98.3947 24.672C98.3947 25.5787 98.6027 26.304 99.0187 26.848C99.4347 27.392 100.045 27.664 100.851 27.664ZM112.593 29V24.752C112.593 24.416 112.563 24.072 112.505 23.72C112.451 23.3627 112.345 23.032 112.185 22.728C112.03 22.424 111.809 22.1787 111.521 21.992C111.238 21.8053 110.867 21.712 110.409 21.712C110.11 21.712 109.827 21.7627 109.561 21.864C109.294 21.96 109.059 22.1173 108.857 22.336C108.659 22.5547 108.502 22.8427 108.385 23.2C108.273 23.5573 108.217 23.992 108.217 24.504L107.177 24.112C107.177 23.328 107.323 22.6373 107.617 22.04C107.91 21.4373 108.331 20.968 108.881 20.632C109.43 20.296 110.094 20.128 110.873 20.128C111.47 20.128 111.971 20.224 112.377 20.416C112.782 20.608 113.11 20.8613 113.361 21.176C113.617 21.4853 113.811 21.824 113.945 22.192C114.078 22.56 114.169 22.92 114.217 23.272C114.265 23.624 114.289 23.9333 114.289 24.2V29H112.593ZM106.521 29V20.36H108.017V22.856H108.217V29H106.521Z" fill="#FDFDF5"/>
<rect width="32" height="32" rx="10" fill="white"/>
<g clip-path="url(#clip0_10107_59944)">
<path d="M8.93179 7.36914C8.93125 7.36914 8.93063 7.36914 8.93008 7.36914C8.73748 7.36914 8.55633 7.44422 8.41955 7.58066C8.28125 7.71861 8.20508 7.9023 8.20508 8.09785V19.0247C8.20508 19.4253 8.53234 19.7521 8.93467 19.7532C10.6308 19.7572 13.4726 20.1107 15.433 22.1622V10.727C15.433 10.5912 15.3983 10.4636 15.3328 10.358C13.7238 7.76682 10.6318 7.37312 8.93179 7.36914Z" fill="#141D1F"/>
<path d="M23.7923 19.0247V8.09785C23.7923 7.9023 23.7161 7.71861 23.5778 7.58066C23.441 7.44422 23.2597 7.36914 23.0673 7.36914C23.0667 7.36914 23.0661 7.36914 23.0655 7.36914C21.3656 7.37319 18.2736 7.76688 16.6646 10.3581C16.5991 10.4637 16.5645 10.5913 16.5645 10.7271V22.1622C18.5249 20.1107 21.3666 19.7572 23.0627 19.7532C23.465 19.7521 23.7923 19.4253 23.7923 19.0247Z" fill="#141D1F"/>
<path d="M25.4517 9.88867H24.9233V19.0243C24.9233 20.0473 24.0898 20.8816 23.0652 20.8841C21.6265 20.8875 19.2543 21.1689 17.5742 22.7589C20.4799 22.0475 23.5429 22.51 25.2886 22.9078C25.5065 22.9574 25.7318 22.9062 25.9064 22.767C26.0804 22.6281 26.1802 22.4206 26.1802 22.1978V10.6172C26.1803 10.2155 25.8534 9.88867 25.4517 9.88867Z" fill="#141D1F"/>
<path d="M7.07431 19.0243V9.88867H6.54595C6.1443 9.88867 5.81738 10.2155 5.81738 10.6172V22.1976C5.81738 22.4204 5.91721 22.6279 6.09123 22.7668C6.26573 22.9059 6.49076 22.9574 6.70907 22.9076C8.45472 22.5097 11.5178 22.0473 14.4233 22.7587C12.7434 21.1687 10.3712 20.8875 8.93248 20.884C7.90792 20.8816 7.07431 20.0473 7.07431 19.0243Z" fill="#141D1F"/>
</g>
<defs>
<clipPath id="clip0_10107_59944">
<rect width="20.3636" height="20.3636" fill="white" transform="translate(5.81836 5.81836)"/>
</clipPath>
</defs>
</svg>
