<svg width="16" height="15" viewBox="0 0 16 15" fill="none" xmlns="http://www.w3.org/2000/svg">
<path d="M8 6.25C7.175 6.25 6.5 6.925 6.5 7.75C6.5 8.575 7.175 9.25 8 9.25C8.825 9.25 9.5 8.575 9.5 7.75C9.5 6.925 8.825 6.25 8 6.25ZM12.5 7.75C12.5 5.2675 10.4825 3.25 8 3.25C5.5175 3.25 3.5 5.2675 3.5 7.75C3.5 9.415 4.4075 10.8625 5.75 11.6425L6.5 10.3375C5.6075 9.8125 5 8.86 5 7.75C5 6.0925 6.3425 4.75 8 4.75C9.6575 4.75 11 6.0925 11 7.75C11 8.86 10.3925 9.8125 9.5 10.3375L10.25 11.6425C11.5925 10.8625 12.5 9.415 12.5 7.75ZM8 0.25C3.86 0.25 0.5 3.61 0.5 7.75C0.5 10.525 2.0075 12.94 4.2425 14.2375L4.9925 12.94C3.2075 11.8975 2 9.97 2 7.75C2 4.435 4.685 1.75 8 1.75C11.315 1.75 14 4.435 14 7.75C14 9.97 12.7925 11.8975 11 12.94L11.75 14.2375C13.9925 12.94 15.5 10.525 15.5 7.75C15.5 3.61 12.14 0.25 8 0.25Z" fill="#5C5F60"/>
</svg>
