<svg width="14" height="14" viewBox="0 0 14 14" fill="none" xmlns="http://www.w3.org/2000/svg">
<path d="M12.25 1.75H10.75V0.25H3.25V1.75H1.75C0.925 1.75 0.25 2.425 0.25 3.25V4C0.25 5.9125 1.69 7.4725 3.5425 7.705C4.015 8.83 5.0275 9.6775 6.25 9.925V12.25H3.25V13.75H10.75V12.25H7.75V9.925C8.9725 9.6775 9.985 8.83 10.4575 7.705C12.31 7.4725 13.75 5.9125 13.75 4V3.25C13.75 2.425 13.075 1.75 12.25 1.75ZM1.75 4V3.25H3.25V6.115C2.38 5.8 1.75 4.975 1.75 4ZM7 8.5C5.7625 8.5 4.75 7.4875 4.75 6.25V1.75H9.25V6.25C9.25 7.4875 8.2375 8.5 7 8.5ZM12.25 4C12.25 4.975 11.62 5.8 10.75 6.115V3.25H12.25V4Z" fill="#745C00"/>
</svg>
