<svg width="24" height="24" viewBox="0 0 24 24" fill="none"
  xmlns="http://www.w3.org/2000/svg">
  <path d="M17.9242 21.7752C17.1242 21.7752 16.4409 21.4919 15.8742 20.9252C15.3076 20.3585 15.0242 19.6752 15.0242 18.8752C15.0242 18.7585 15.0326 18.6375 15.0492 18.5122C15.0659 18.3875 15.0909 18.2752 15.1242 18.1752L8.09922 14.1002C7.83255 14.3502 7.52855 14.5462 7.18722 14.6882C6.84522 14.8295 6.48255 14.9002 6.09922 14.9002C5.29922 14.9002 4.61589 14.6169 4.04922 14.0502C3.48255 13.4835 3.19922 12.7919 3.19922 11.9752C3.19922 11.1752 3.48255 10.4962 4.04922 9.9382C4.61589 9.37953 5.29922 9.1002 6.09922 9.1002C6.48255 9.1002 6.84522 9.16686 7.18722 9.3002C7.52855 9.43353 7.83255 9.6252 8.09922 9.8752L15.1242 5.8002C15.0909 5.7002 15.0659 5.58753 15.0492 5.4622C15.0326 5.33753 15.0242 5.21686 15.0242 5.1002C15.0242 4.3002 15.3076 3.61686 15.8742 3.0502C16.4409 2.48353 17.1242 2.2002 17.9242 2.2002C18.7409 2.2002 19.4286 2.4792 19.9872 3.0372C20.5452 3.59586 20.8242 4.2752 20.8242 5.0752C20.8242 5.89186 20.5409 6.58353 19.9742 7.1502C19.4076 7.71686 18.7242 8.0002 17.9242 8.0002C17.5576 8.0002 17.2036 7.9292 16.8622 7.7872C16.5202 7.64586 16.2076 7.4502 15.9242 7.2002L8.89922 11.2752C8.93255 11.3752 8.95755 11.4919 8.97422 11.6252C8.99089 11.7585 8.99922 11.8835 8.99922 12.0002C8.99922 12.1169 8.99089 12.2375 8.97422 12.3622C8.95755 12.4875 8.93255 12.6002 8.89922 12.7002L15.9242 16.7752C16.2076 16.5085 16.5159 16.3085 16.8492 16.1752C17.1826 16.0419 17.5409 15.9752 17.9242 15.9752C18.7409 15.9752 19.4286 16.2585 19.9872 16.8252C20.5452 17.3919 20.8242 18.0752 20.8242 18.8752C20.8242 19.6919 20.5409 20.3795 19.9742 20.9382C19.4076 21.4962 18.7242 21.7752 17.9242 21.7752Z" fill="currentColor"/>
</svg>
