<svg width="18" height="18" viewBox="0 0 18 18" fill="none" xmlns="http://www.w3.org/2000/svg">
<path d="M13.5 12.06C12.93 12.06 12.42 12.285 12.03 12.6375L6.6825 9.525C6.72 9.3525 6.75 9.18 6.75 9C6.75 8.82 6.72 8.6475 6.6825 8.475L11.97 5.3925C12.375 5.7675 12.9075 6 13.5 6C14.745 6 15.75 4.995 15.75 3.75C15.75 2.505 14.745 1.5 13.5 1.5C12.255 1.5 11.25 2.505 11.25 3.75C11.25 3.93 11.28 4.1025 11.3175 4.275L6.03 7.3575C5.625 6.9825 5.0925 6.75 4.5 6.75C3.255 6.75 2.25 7.755 2.25 9C2.25 10.245 3.255 11.25 4.5 11.25C5.0925 11.25 5.625 11.0175 6.03 10.6425L11.37 13.7625C11.3325 13.92 11.31 14.085 11.31 14.25C11.31 15.4575 12.2925 16.44 13.5 16.44C14.7075 16.44 15.69 15.4575 15.69 14.25C15.69 13.0425 14.7075 12.06 13.5 12.06ZM13.5 3C13.9125 3 14.25 3.3375 14.25 3.75C14.25 4.1625 13.9125 4.5 13.5 4.5C13.0875 4.5 12.75 4.1625 12.75 3.75C12.75 3.3375 13.0875 3 13.5 3ZM4.5 9.75C4.0875 9.75 3.75 9.4125 3.75 9C3.75 8.5875 4.0875 8.25 4.5 8.25C4.9125 8.25 5.25 8.5875 5.25 9C5.25 9.4125 4.9125 9.75 4.5 9.75ZM13.5 15.015C13.0875 15.015 12.75 14.6775 12.75 14.265C12.75 13.8525 13.0875 13.515 13.5 13.515C13.9125 13.515 14.25 13.8525 14.25 14.265C14.25 14.6775 13.9125 15.015 13.5 15.015Z" fill="#00639D"/>
</svg>
