<svg width="18" height="19" viewBox="0 0 18 19" fill="none" xmlns="http://www.w3.org/2000/svg">
<path d="M15 2.00002H2.99997C2.17497 2.00002 1.49997 2.67502 1.49997 3.50002V15.5C1.49997 16.325 2.17497 17 2.99997 17H15C15.825 17 16.5 16.325 16.5 15.5V3.50002C16.5 2.67502 15.825 2.00002 15 2.00002ZM5.99997 15.5H2.99997V12.5H5.99997V15.5ZM5.99997 11H2.99997V8.00002H5.99997V11ZM5.99997 6.50002H2.99997V3.50002H5.99997V6.50002ZM10.5 15.5H7.49997V12.5H10.5V15.5ZM10.5 11H7.49997V8.00002H10.5V11ZM10.5 6.50002H7.49997V3.50002H10.5V6.50002ZM15 15.5H12V12.5H15V15.5ZM15 11H12V8.00002H15V11ZM15 6.50002H12V3.50002H15V6.50002Z" fill="white"/>
</svg>
