<svg width="64" height="64" viewBox="0 0 64 64" fill="none"
  xmlns="http://www.w3.org/2000/svg">
  <path d="M26 3.4641C29.7128 1.32051 34.2872 1.32051 38 3.4641L53.7128 12.5359C57.4256 14.6795 59.7128 18.641 59.7128 22.9282V41.0718C59.7128 45.359 57.4256 49.3205 53.7128 51.4641L38 60.5359C34.2872 62.6795 29.7128 62.6795 26 60.5359L10.2872 51.4641C6.57438 49.3205 4.28719 45.359 4.28719 41.0718L4.28719 22.9282C4.28719 18.641 6.57437 14.6795 10.2872 12.5359L26 3.4641Z" fill="#CAFF82"/>
  <path d="M44 40.9973C45.6569 40.9973 47 39.6542 47 37.9973C47 36.3405 45.6569 34.9973 44 34.9973C42.3431 34.9973 41 36.3405 41 37.9973C41 39.6542 42.3431 40.9973 44 40.9973Z" fill="url(#paint0_linear_10463_4320)" fill-opacity="0.4" stroke="#085B4C" stroke-width="1.5" stroke-linecap="round" stroke-linejoin="round"/>
  <path d="M32 46.9973C33.6569 46.9973 35 45.6542 35 43.9973C35 42.3405 33.6569 40.9973 32 40.9973C30.3431 40.9973 29 42.3405 29 43.9973C29 45.6542 30.3431 46.9973 32 46.9973Z" fill="url(#paint1_linear_10463_4320)" fill-opacity="0.4" stroke="#085B4C" stroke-width="1.5" stroke-linecap="round" stroke-linejoin="round"/>
  <path d="M32 35C33.6569 35 35 33.6569 35 32C35 30.3431 33.6569 29 32 29C30.3431 29 29 30.3431 29 32C29 33.6569 30.3431 35 32 35Z" stroke="#085B4C" stroke-width="1.5" stroke-linecap="round" stroke-linejoin="round"/>
  <path d="M32 23C33.6569 23 35 21.6569 35 20C35 18.3431 33.6569 17 32 17C30.3431 17 29 18.3431 29 20C29 21.6569 30.3431 23 32 23Z" stroke="#085B4C" stroke-width="1.5" stroke-linecap="round" stroke-linejoin="round"/>
  <path d="M32 23C33.6569 23 35 21.6569 35 20C35 18.3431 33.6569 17 32 17C30.3431 17 29 18.3431 29 20C29 21.6569 30.3431 23 32 23Z" fill="#085B4C"/>
  <path d="M20 40.9973C18.3431 40.9973 17 39.6542 17 37.9973C17 36.3405 18.3431 34.9973 20 34.9973C21.6569 34.9973 23 36.3405 23 37.9973C23 39.6542 21.6569 40.9973 20 40.9973Z" stroke="#085B4C" stroke-width="1.5" stroke-linecap="round" stroke-linejoin="round"/>
  <path d="M20 40.9993C21.6569 40.9993 23 39.6561 23 37.9993C23 36.3424 21.6569 34.9993 20 34.9993C18.3431 34.9993 17 36.3424 17 37.9993C17 39.6561 18.3431 40.9993 20 40.9993Z" fill="#085B4C"/>
  <path d="M20 23C18.3431 23 17 24.3431 17 26C17 27.6569 18.3431 29 20 29C21.6569 29 23 27.6569 23 26C23 24.3431 21.6569 23 20 23Z" fill="url(#paint2_linear_10463_4320)" fill-opacity="0.4" stroke="#085B4C" stroke-width="1.5" stroke-linecap="round" stroke-linejoin="round"/>
  <path d="M44 22.9973C45.6569 22.9973 47 24.3405 47 25.9973C47 27.6542 45.6569 28.9973 44 28.9973C42.3431 28.9973 41 27.6542 41 25.9973C41 24.3405 42.3431 22.9973 44 22.9973Z" fill="url(#paint3_linear_10463_4320)" fill-opacity="0.4" stroke="#085B4C" stroke-width="1.5" stroke-linecap="round" stroke-linejoin="round"/>
  <path d="M32 36.9973V38.9973" stroke="#085B4C" stroke-width="1.5" stroke-linecap="round" stroke-linejoin="round"/>
  <path d="M32 24.9973V26.9973" stroke="#085B4C" stroke-width="1.5" stroke-linecap="round" stroke-linejoin="round"/>
  <path d="M26.8477 22.4675L25.1516 23.5274" stroke="#085B4C" stroke-width="1.5" stroke-linecap="round" stroke-linejoin="round"/>
  <path d="M38.8477 40.4675L37.1516 41.5274" stroke="#085B4C" stroke-width="1.5" stroke-linecap="round" stroke-linejoin="round"/>
  <path d="M26.8477 34.4675L25.1516 35.5274" stroke="#085B4C" stroke-width="1.5" stroke-linecap="round" stroke-linejoin="round"/>
  <path d="M37.1523 22.4675L38.8484 23.5274" stroke="#085B4C" stroke-width="1.5" stroke-linecap="round" stroke-linejoin="round"/>
  <path d="M37.1523 34.4675L38.8484 35.5274" stroke="#085B4C" stroke-width="1.5" stroke-linecap="round" stroke-linejoin="round"/>
  <path d="M20 30.9973V32.9973" stroke="#085B4C" stroke-width="1.5" stroke-linecap="round" stroke-linejoin="round"/>
  <path d="M32 35C33.6569 35 35 33.6569 35 32C35 30.3431 33.6569 29 32 29C30.3431 29 29 30.3431 29 32C29 33.6569 30.3431 35 32 35Z" fill="#085B4C"/>
  <defs>
    <linearGradient id="paint0_linear_10463_4320" x1="41" y1="37.9973" x2="47" y2="37.9973" gradientUnits="userSpaceOnUse">
      <stop stop-color="#B2FF42"/>
      <stop offset="1" stop-color="#0D8773"/>
    </linearGradient>
    <linearGradient id="paint1_linear_10463_4320" x1="29" y1="43.9973" x2="35" y2="43.9973" gradientUnits="userSpaceOnUse">
      <stop stop-color="#B2FF42"/>
      <stop offset="1" stop-color="#0D8773"/>
    </linearGradient>
    <linearGradient id="paint2_linear_10463_4320" x1="23" y1="26" x2="17" y2="26" gradientUnits="userSpaceOnUse">
      <stop stop-color="#B2FF42"/>
      <stop offset="1" stop-color="#0D8773"/>
    </linearGradient>
    <linearGradient id="paint3_linear_10463_4320" x1="41" y1="25.9973" x2="47" y2="25.9973" gradientUnits="userSpaceOnUse">
      <stop stop-color="#B2FF42"/>
      <stop offset="1" stop-color="#0D8773"/>
    </linearGradient>
  </defs>
</svg>
